<?xml version="1.0" standalone="no"?><!DOCTYPE svg PUBLIC "-//W3C//DTD SVG 1.1//EN" "http://www.w3.org/Graphics/SVG/1.1/DTD/svg11.dtd"><svg t="1732879212738" class="icon" viewBox="0 0 1024 1024" version="1.1" xmlns="http://www.w3.org/2000/svg" p-id="2924" xmlns:xlink="http://www.w3.org/1999/xlink" width="16" height="16"><path d="M391.529412 0h240.941176v60.235294H391.529412V0zM271.058824 60.235294h120.470588v60.235294h-120.470588V60.235294zM90.352941 662.588235h120.470588v60.235294H90.352941v-60.235294zM150.588235 903.529412h120.470589v60.235294H150.588235v-60.235294zM752.941176 903.529412h120.470589v60.235294h-120.470589v-60.235294zM813.176471 662.588235h120.470588v60.235294h-120.470588v-60.235294zM190.745098 602.352941h622.431373v60.235294H190.745098v-60.235294zM271.058824 963.764706h481.882352v60.235294H271.058824v-60.235294zM210.823529 120.470588h60.235295v60.235294H210.823529V120.470588zM752.941176 120.470588h60.235295v60.235294h-60.235295V120.470588zM150.588235 180.705882h60.235294v60.235294H150.588235V180.705882zM813.176471 180.705882h60.235294v60.235294h-60.235294V180.705882zM90.352941 240.941176h60.235294v120.470589H90.352941v-120.470589zM873.411765 240.941176h60.235294v120.470589h-60.235294v-120.470589zM90.352941 722.823529h60.235294v180.705883H90.352941v-180.705883zM391.529412 662.588235h60.235294v180.705883h-60.235294v-180.705883zM572.235294 662.588235h60.235294v180.705883h-60.235294v-180.705883zM873.411765 722.823529h60.235294v180.705883h-60.235294v-180.705883zM30.117647 361.411765h60.235294v301.17647H30.117647V361.411765zM933.647059 361.411765h60.235294v301.17647h-60.235294V361.411765zM632.470588 60.235294h120.470588v60.235294h-120.470588V60.235294z" fill="#10001D" p-id="2925"></path><path d="M391.529412 60.235294h60.235294v60.235294h-60.235294V60.235294zM150.588235 240.941176h60.235294v60.235295H150.588235v-60.235295zM813.176471 240.941176h60.235294v60.235295h-60.235294v-60.235295zM271.058824 120.470588h120.470588v60.235294h-120.470588V120.470588zM391.529412 301.176471h240.941176v60.235294H391.529412v-60.235294zM632.470588 120.470588h120.470588v60.235294h-120.470588V120.470588zM572.235294 60.235294h60.235294v60.235294h-60.235294V60.235294z" fill="#E55047" p-id="2926"></path><path d="M210.823529 180.705882h60.235295v120.470589H210.823529V180.705882zM271.058824 240.941176h481.882352v60.235295H271.058824v-60.235295zM391.529412 180.705882h240.941176v60.235294H391.529412V180.705882zM752.941176 180.705882h60.235295v120.470589h-60.235295V180.705882zM451.764706 120.470588h120.470588v60.235294h-120.470588V120.470588zM90.352941 542.117647h120.470588v60.235294H90.352941v-60.235294zM813.176471 542.117647h120.470588v60.235294h-120.470588v-60.235294zM210.823529 481.882353h60.235295v60.235294H210.823529v-60.235294zM271.058824 301.176471h60.235294v240.941176h-60.235294V301.176471zM331.294118 301.176471h60.235294v60.235294h-60.235294v-60.235294zM632.470588 301.176471h60.235294v60.235294h-60.235294v-60.235294zM692.705882 301.176471h60.235294v240.941176h-60.235294V301.176471zM752.941176 481.882353h60.235295v60.235294h-60.235295v-60.235294z" fill="#FA8F0E" p-id="2927"></path><path d="M391.529412 120.470588h60.235294v60.235294h-60.235294V120.470588zM572.235294 120.470588h60.235294v60.235294h-60.235294V120.470588zM271.058824 180.705882h120.470588v60.235294h-120.470588V180.705882zM632.470588 180.705882h120.470588v60.235294h-120.470588V180.705882zM391.529412 542.117647h120.470588v60.235294h-120.470588v-60.235294zM331.294118 361.411765h361.411764v180.705882H331.294118v-180.705882zM512 542.117647h120.470588v60.235294h-120.470588v-60.235294zM150.588235 301.176471h60.235294v240.941176H150.588235V301.176471zM813.176471 301.176471h60.235294v240.941176h-60.235294V301.176471zM210.823529 301.176471h60.235295v180.705882H210.823529v-180.705882zM752.941176 301.176471h60.235295v180.705882h-60.235295v-180.705882zM90.352941 361.411765h60.235294v180.705882H90.352941v-180.705882zM873.411765 361.411765h60.235294v180.705882h-60.235294v-180.705882z" fill="#B8332B" p-id="2928"></path><path d="M451.764706 60.235294h60.235294v60.235294h-60.235294V60.235294zM90.352941 602.352941h120.470588v60.235294H90.352941v-60.235294zM813.176471 602.352941h120.470588v60.235294h-120.470588v-60.235294zM210.823529 542.117647h180.705883v60.235294H210.823529v-60.235294zM632.470588 542.117647h180.705883v60.235294h-180.705883v-60.235294z" fill="#FFC073" p-id="2929"></path><path d="M210.823529 662.588235h180.705883v60.235294H210.823529v-60.235294zM150.588235 722.823529h240.941177v180.705883H150.588235v-180.705883zM271.058824 903.529412h481.882352v60.235294H271.058824v-60.235294zM391.529412 843.294118h481.882353v60.235294H391.529412v-60.235294zM451.764706 662.588235h120.470588v180.705883h-120.470588v-180.705883zM632.470588 662.588235h180.705883v180.705883h-180.705883v-180.705883zM813.176471 722.823529h60.235294v120.470589h-60.235294v-120.470589z" fill="#FFF1E3" p-id="2930"></path><path d="M512 60.235294h60.235294v60.235294h-60.235294V60.235294z" fill="#FFC073" p-id="2931"></path></svg>