<?xml version="1.0" standalone="no"?><!DOCTYPE svg PUBLIC "-//W3C//DTD SVG 1.1//EN" "http://www.w3.org/Graphics/SVG/1.1/DTD/svg11.dtd"><svg t="1732879256273" class="icon" viewBox="0 0 1024 1024" version="1.1" xmlns="http://www.w3.org/2000/svg" p-id="4341" xmlns:xlink="http://www.w3.org/1999/xlink" width="16" height="16"><path d="M672 512c0 88.416-71.584 160-160 160s-160-71.584-160-160c0-88.384 71.584-160 160-160s160 71.616 160 160z" fill="#F8EF9D" p-id="4342"></path><path d="M708.704 547.136c2.048-11.456 3.296-23.2 3.296-35.136 0-7.2-0.416-14.304-1.152-21.344-0.16-1.312-0.448-2.56-0.608-3.84a178.528 178.528 0 0 0-3.072-18.048 198.656 198.656 0 0 0-24.832-61.184l-2.72-4.48a207.84 207.84 0 0 0-15.776-21.088l-2.368-2.624a203.84 203.84 0 0 0-17.472-17.408l-2.304-2.112a202.016 202.016 0 0 0-92.128-44.288c-1.024-0.192-2.048-0.32-3.104-0.48A210.048 210.048 0 0 0 512 312c-7.232 0-14.304 0.416-21.312 1.184-1.344 0.128-2.688 0.416-4.032 0.608a182.656 182.656 0 0 0-17.792 3.008 198.816 198.816 0 0 0-61.12 24.768c-1.536 0.96-3.136 1.824-4.64 2.816-7.328 4.8-14.336 10.048-20.96 15.712-0.96 0.8-1.856 1.664-2.752 2.496a201.376 201.376 0 0 0-17.12 17.152c-0.768 0.896-1.6 1.728-2.4 2.624a198.464 198.464 0 0 0-35.872 62.048c-3.36 9.6-6.304 19.424-8.256 29.632l-0.416 2.784A196.96 196.96 0 0 0 312 512c0 7.2 0.416 14.304 1.184 21.344 0.128 1.28 0.416 2.496 0.576 3.776 0.768 6.08 1.696 12.16 3.072 18.08a198.336 198.336 0 0 0 24.48 60.608c1.088 1.792 2.08 3.552 3.232 5.312 4.736 7.232 9.888 14.112 15.456 20.64 0.896 1.056 1.888 2.048 2.816 3.136 5.28 5.92 10.88 11.52 16.832 16.768 0.928 0.832 1.824 1.728 2.784 2.528a197.024 197.024 0 0 0 61.92 35.84c9.6 3.36 19.456 6.304 29.696 8.288l2.752 0.416c11.52 2.016 23.232 3.264 35.2 3.264 7.232 0 14.336-0.416 21.344-1.152 1.28-0.16 2.496-0.448 3.776-0.608a197.088 197.088 0 0 0 61.696-18.336c5.92-2.88 11.648-5.984 17.216-9.376 1.664-0.992 3.328-1.952 4.896-3.008 7.328-4.768 14.272-9.984 20.864-15.616l2.88-2.592c6.016-5.344 11.648-11.04 16.96-17.024 0.8-0.928 1.696-1.792 2.496-2.72 5.728-6.72 10.976-13.824 15.744-21.248 8.224-12.672 14.944-26.368 20.128-40.8 3.328-9.568 6.272-19.36 8.224-29.568 0.256-0.928 0.352-1.888 0.48-2.816zM512 672c-88.416 0-160-71.584-160-160 0-88.384 71.584-160 160-160s160 71.616 160 160c0 88.416-71.584 160-160 160z" fill="#888822" p-id="4343"></path><path d="M607.264 480v-64h-64v-57.504h-64V416h-64v64h-56v64h56v64h64v57.504h64V608h64v-64h57.504v-64h-57.504z m-64-57.504v55.424h-64v-55.424h64zM423.264 480h54.496v64h-54.496v-64z m56 121.504v-55.424h64v55.424h-64zM600.736 544H546.24v-64h54.496v64z" fill="#C3C35D" p-id="4344"></path><path d="M537.12 710.24c6.08-0.736 12.128-1.76 18.048-3.072 13.632 41.216 37.568 99.232 76 147.232 0.416 5.6 0.8 11.584 0.8 17.6 0 78.4-115.2 80-120 80s-120-1.6-120-80c0-6.016 0.416-11.584 0.8-17.6 4.032-59.168 28-117.216 47.232-155.584 1.376 0.544 2.944 0.704 4.352 1.216 9.6 3.424 19.456 6.304 29.696 8.288l2.752 0.416c11.424 2.016 23.136 3.296 35.168 3.296 7.232 0 14.336-0.448 21.344-1.152 1.312-0.192 2.528-0.48 3.808-0.64z m-157.472-48.576a203.008 203.008 0 0 1-16.832-16.768c-0.928-1.056-1.92-2.016-2.816-3.136a199.232 199.232 0 0 1-15.456-20.64c-1.152-1.76-2.144-3.52-3.232-5.312a200.416 200.416 0 0 1-9.12-16.704c-0.928-1.888-2.112-3.552-2.976-5.472-40.768 13.184-99.2 37.184-143.584 76.384-4.416 3.2-8.768 7.2-13.184 11.584-55.584 55.968 25.184 138.016 28.416 141.6 13.6 13.216 57.6 48 96.768 48 16.8 0 31.232-6.368 44.8-19.584 4.416-4.416 8.416-8.832 11.584-13.184 6.848-60.8 30.816-118.816 50.816-157.6-0.416-0.256-0.736-0.608-1.152-0.832a197.024 197.024 0 0 1-21.216-15.776l-2.816-2.56z m-17.408-281.92c5.344-6.048 11.072-11.776 17.12-17.152l2.752-2.496c6.624-5.696 13.632-10.944 20.96-15.712 1.504-0.992 3.104-1.856 4.64-2.816 5.728-3.488 11.616-6.72 17.696-9.632 1.696-0.832 3.232-1.952 4.96-2.72-13.216-40.8-37.216-99.2-76.416-143.584a115.68 115.68 0 0 0-11.584-13.216c-13.6-13.216-28-19.616-44.8-19.616-39.584 0-84.416 35.616-96.768 48-3.2 3.616-83.616 85.984-28.384 141.6 4.416 4.384 8.768 8.384 13.184 11.584 60.8 6.816 118.816 30.784 157.6 50.816l0.832-1.12c4.8-7.456 10.08-14.592 15.808-21.312l2.4-2.624z m-49.056 153.6A196.064 196.064 0 0 1 312 512c0-12 1.248-23.712 3.296-35.168l0.416-2.784c1.952-10.208 4.8-20.032 8.256-29.632 0.512-1.44 0.704-3.008 1.248-4.448-38.368-19.2-96.768-43.2-156-47.584-5.6 0-11.584-0.416-17.184-0.416-78.4 0-80 115.2-80 120s1.6 120 80 120c6.016 0 11.584-0.416 17.6-0.8 48-38.368 105.984-62.368 147.232-76a199.2 199.2 0 0 1-3.072-18.08c-0.224-1.248-0.48-2.496-0.608-3.744z m177.504-220.16c7.008-0.768 14.112-1.184 21.312-1.184 11.776 0 23.264 1.216 34.496 3.168l3.104 0.48c10.432 1.984 20.512 4.864 30.272 8.416 1.344 0.48 2.752 0.64 4.096 1.152 19.232-38.4 43.2-96.416 47.232-155.616 0.416-6.016 0.8-11.584 0.8-17.6 0-77.6-113.6-80-120-80s-120 2.4-120 80c0 6.016 0.416 12 0.8 17.6 38.432 48 62.368 106.016 76 147.2h0.064c5.856-1.28 11.776-2.24 17.792-3.008 1.344-0.192 2.688-0.48 4.032-0.608z m171.008 331.136a202.72 202.72 0 0 1-16.96 17.024l-2.88 2.592a194.56 194.56 0 0 1-20.864 15.616c-1.6 1.056-3.264 1.984-4.896 3.008a203.2 203.2 0 0 1-17.216 9.376c-1.824 0.896-3.424 2.016-5.248 2.88 13.184 40.8 37.216 99.2 76.416 143.584 3.2 4.352 7.2 8.768 11.584 13.184 13.6 13.216 28 19.584 44.8 19.584 39.2 0 83.2-34.784 96.768-48 3.232-3.584 83.584-86.016 28.416-141.6a114.688 114.688 0 0 0-13.184-11.584c-60.8-6.816-118.784-30.816-157.6-50.816-0.256 0.416-0.608 0.736-0.864 1.152a196.032 196.032 0 0 1-15.744 21.248c-0.864 0.96-1.728 1.792-2.528 2.752z m210.304-252.32c-6.016 0-11.584 0.416-17.6 0.8-48 38.4-106.016 62.4-147.232 76 1.312 5.92 2.272 11.936 3.072 18.048 0.16 1.28 0.448 2.528 0.608 3.84 0.704 7.008 1.152 14.112 1.152 21.344 0 12-1.248 23.712-3.296 35.136-0.16 0.928-0.256 1.92-0.448 2.848a195.072 195.072 0 0 1-8.224 29.568c-0.512 1.472-0.704 3.04-1.248 4.48 38.368 19.2 96.768 43.2 156 47.584 5.6 0 11.584 0.416 17.184 0.416 78.4 0 80-115.2 80-120S950.4 392 872 392z m-2.4-304.928c26.976 8.992 44.576 25.472 47.936 28.832s34.464 35.968 34.464 81.28c0 19.84-6.016 49.056-34.464 77.536-62.144 62.176-173.024 64.064-185.376 64.064h-37.472V301.312c0-12.384 1.888-123.232 64.032-185.408 31.84-31.84 71.168-42.304 110.88-28.832z m0 0" fill="#F1DADA" p-id="4345"></path><path d="M894.016 670.368c56 82.816-42.4 181.216-42.4 181.216s-60 59.584-125.184 59.584a95.2 95.2 0 0 1-56-17.568C652.416 992 512 992 512 992s-140.416 0-158.4-98.368a95.488 95.488 0 0 1-56 17.568c-65.184 0-125.184-59.584-125.184-59.584s-55.36-55.584-59.232-118.144a98.24 98.24 0 0 1 17.248-63.072C32 652.416 32 512 32 512s0-140 98.016-158.4c-56-82.816 42.4-181.216 42.4-181.216S232.416 112.8 297.6 112.8c18.4 0 38.016 4.8 56 17.6C371.584 32 512 32 512 32s44.512 0 86.624 17.568c25.28 10.56 49.44 27.68 62.848 54.72a154.496 154.496 0 0 1 8.512 81.312v0.032c-6.848 60.768-30.816 118.752-50.848 157.536 0.32 0.192 0.576 0.448 0.864 0.672a202.016 202.016 0 0 0-40.16-19.808c1.344 0.48 2.752 0.64 4.096 1.152 7.712-15.424 16.16-34.112 23.808-54.656 11.392-30.624 20.992-65.536 23.392-100.96 0.416-6.016 0.8-11.584 0.8-17.6 0-49.568-46.272-68.384-81.44-75.552A219.936 219.936 0 0 0 512 72c-6.4 0-120 2.4-120 80 0 6.016 0.416 12 0.8 17.6 38.432 48 62.368 106.016 76 147.2h0.064a198.816 198.816 0 0 0-43.424 15.136c1.696-0.832 3.232-1.952 4.96-2.72-13.216-40.8-37.216-99.2-76.416-143.584a115.68 115.68 0 0 0-11.584-13.216c-13.6-13.216-28-19.616-44.8-19.616-39.584 0-84.416 35.616-96.768 48-3.232 3.616-83.648 85.984-28.416 141.6 4.416 4.384 8.768 8.384 13.184 11.584 60.8 6.816 118.816 30.784 157.6 50.816l0.832-1.12a199.168 199.168 0 0 0-20.064 40.736c0.512-1.44 0.704-3.008 1.248-4.448-38.368-19.2-96.768-43.2-156-47.584-5.6 0-11.584-0.416-17.184-0.416-78.4 0-80 115.2-80 120s1.6 120 80 120c6.016 0 11.584-0.416 17.6-0.8 48-38.368 105.984-62.368 147.232-76 3.392 15.392 8.64 30.048 15.36 43.904-0.928-1.888-2.112-3.552-2.976-5.472-40.768 13.184-99.2 37.184-143.584 76.384-4.416 3.2-8.768 7.2-13.184 11.584-55.584 55.968 25.184 138.016 28.416 141.6 13.6 13.216 57.6 48 96.768 48 16.8 0 31.232-6.368 44.8-19.584 4.416-4.416 8.416-8.832 11.584-13.184 6.848-60.8 30.816-118.816 50.816-157.6-0.416-0.256-0.736-0.608-1.152-0.832 12.672 8.16 26.304 14.88 40.704 20.064-1.408-0.512-2.944-0.672-4.352-1.216-19.232 38.368-43.2 96.448-47.232 155.584a249.056 249.056 0 0 0-0.8 17.6c0 78.4 115.2 80 120 80s120-1.6 120-80c0-6.016-0.416-12-0.8-17.6-38.432-48-62.368-106.016-76-147.232a197.088 197.088 0 0 0 43.648-15.264c-1.824 0.896-3.424 2.016-5.248 2.88 13.184 40.8 37.216 99.2 76.416 143.584 3.2 4.352 7.2 8.768 11.584 13.184 13.6 13.216 28 19.584 44.8 19.584 39.2 0 83.2-34.784 96.768-48 3.232-3.584 83.584-86.016 28.416-141.6a114.688 114.688 0 0 0-13.184-11.584c-60.8-6.816-118.784-30.816-157.6-50.816-0.256 0.416-0.608 0.736-0.864 1.152 8.224-12.672 14.944-26.368 20.128-40.8-0.512 1.472-0.704 3.04-1.248 4.48 38.368 19.2 96.768 43.2 156 47.584 5.6 0 11.584 0.416 17.184 0.416 78.4 0 80-115.2 80-120 0-2.656-0.576-39.232-14.336-71.328-11.104-25.792-30.72-48.672-65.664-48.672-6.016 0-11.584 0.416-17.6 0.8-16.8 13.44-34.88 24.576-52.992 34.656a559.36 559.36 0 0 1-94.208 41.344 198.656 198.656 0 0 0-15.008-43.168c0.768 1.632 1.856 3.104 2.592 4.768 32.096-10.368 74.816-27.776 113.312-53.632 5.344-3.584 10.304-7.68 15.424-11.616a105.888 105.888 0 0 1 52.16-13.12c6.176 0 12.16 0.576 17.984 1.44l-0.096 0.16a97.504 97.504 0 0 1 57.024 32.512C992 433.216 992 512 992 512s0 140-97.984 158.368zM732.128 301.312s105.92 0 158.848-52.96c17.696-17.632 23.552-35.328 23.552-51.008 0-31.424-23.552-54.976-23.552-54.976s-52.928-52.96-105.92 0c-52.928 52.96-52.928 158.944-52.928 158.944m-37.472 0c0-12.448 1.792-123.264 63.936-185.408 31.904-31.904 71.328-42.144 111.168-28.896 26.848 8.96 44.48 25.664 47.712 28.896 3.52 3.52 34.528 35.84 34.528 81.44 0 19.584-6.016 48.928-34.528 77.504-62.144 62.112-172.928 63.936-185.344 63.936h-37.472V301.312z m0 0" fill="#C9AAAA" p-id="4346"></path></svg>